<svg width="32" height="32" viewBox="0 0 32 32" fill="none" xmlns="http://www.w3.org/2000/svg">
<path d="M28 0H4C1.79086 0 0 1.79086 0 4V28C0 30.2091 1.79086 32 4 32H28C30.2091 32 32 30.2091 32 28V4C32 1.79086 30.2091 0 28 0Z" fill="url(#paint0_linear_13447_102844)"/>
<path d="M12.1708 11.4311C11.9175 11.4289 11.7242 11.4889 11.5308 11.5378C11.1219 11.6422 10.733 11.68 10.3197 11.5089C9.87749 11.3267 9.40638 11.2089 8.95082 11.0578C8.71305 10.9778 8.55083 10.7645 8.53972 10.54C8.5286 10.2845 8.65972 10.0756 8.89749 9.96446C9.01305 9.91113 9.12416 9.90447 9.24638 9.94669C9.75083 10.1178 10.2575 10.2845 10.7619 10.4556C10.8575 10.4889 10.9508 10.5 11.0508 10.4778C12.3064 10.2067 13.5597 9.91557 14.8219 9.67113C15.3575 9.56668 15.7619 9.25335 16.1953 8.98002C16.7397 8.63335 17.2997 8.36002 17.9619 8.39557C18.5553 8.42668 19.113 8.58224 19.6219 8.90668C20.3642 9.38001 21.1264 9.8178 21.9242 10.1934C22.4486 10.44 22.9975 10.4067 23.5397 10.2978C24.0175 10.2 24.4886 10.0622 24.9619 9.94002C25.313 9.84891 25.6197 9.99335 25.7108 10.2956C25.8175 10.6489 25.673 10.9356 25.2953 11.0422C24.493 11.2689 23.6908 11.5156 22.8508 11.5422C22.3175 11.56 21.8042 11.4356 21.3242 11.2022C20.4975 10.8022 19.7108 10.3289 18.9242 9.8578C18.2819 9.47335 17.6197 9.41113 16.9486 9.84447C16.0397 10.4334 15.0975 10.9645 14.1219 11.4378C13.7908 11.5978 13.4686 11.7778 13.1864 12.02C12.9908 12.1889 12.8219 12.3845 12.9197 12.6622C13.0264 12.9578 13.2086 13.1934 13.5597 13.22C13.9775 13.2511 14.3664 13.1222 14.7464 12.9867C15.7019 12.6489 16.6597 12.3134 17.633 12.0267C18.1486 11.8756 18.3842 11.9934 18.5619 12.5245C18.8108 13.2689 19.3353 13.7889 19.9642 14.2089C20.7197 14.7134 21.4953 15.1911 22.2619 15.68C22.673 15.9422 23.1086 16.1734 23.493 16.4711C23.833 16.7334 24.1508 16.74 24.533 16.6111C24.9953 16.4556 25.4708 16.3422 25.9442 16.2178C26.213 16.1467 26.5486 16.3378 26.633 16.6C26.7286 16.8911 26.5642 17.2289 26.2686 17.3334C26.0708 17.4022 25.8664 17.4534 25.6619 17.5022C25.5086 17.54 25.4553 17.5956 25.5064 17.7689C25.7819 18.6911 25.3864 19.9067 24.2908 20.3311C23.7353 20.5467 23.1842 20.4667 22.6375 20.2756C21.9886 20.0489 21.4553 19.6267 20.8886 19.2578C20.1064 18.7489 19.333 18.2289 18.5553 17.7156C18.2797 17.5333 18.1975 17.2245 18.3597 16.9534C18.5175 16.6845 18.8708 16.5822 19.1464 16.7533C19.6242 17.0533 20.0908 17.3711 20.5597 17.6845C21.1664 18.0889 21.7686 18.5 22.3797 18.9C22.7019 19.1111 23.0508 19.2756 23.4397 19.3178C24.0975 19.3889 24.6286 18.6734 24.3819 18.0534C24.3419 17.9511 24.2775 17.8889 24.1553 17.9333C23.8686 18.0378 23.6286 17.92 23.393 17.7711C22.073 16.9333 20.7508 16.1022 19.4331 15.26C18.7042 14.7956 18.0975 14.2089 17.6908 13.4378C17.6175 13.2978 17.533 13.2734 17.4042 13.3178C16.7219 13.5489 16.0375 13.7756 15.3575 14.0156C14.7886 14.2156 14.213 14.3889 13.6042 14.3889C12.5197 14.3867 11.6153 13.3622 11.753 12.2822C11.7953 11.9778 11.9686 11.7267 12.1708 11.4311Z" fill="#F9FDFC"/>
<path d="M16.6042 20.9667C16.5175 21.26 16.6953 21.4578 16.9975 21.6356C17.5286 21.9489 18.0331 22.3045 18.5486 22.6422C18.9753 22.9222 19.2531 22.8845 19.5953 22.5C19.9353 22.12 20.4264 22.1933 20.6108 22.6489C20.6797 22.8178 20.6442 22.9711 20.5575 23.1222C20.1242 23.8889 19.0242 24.2222 18.2553 23.7867C17.6931 23.4689 17.1575 23.1022 16.6175 22.7489C16.4908 22.6667 16.4264 22.6622 16.3353 22.8022C15.6753 23.8022 14.1375 23.8356 13.4242 22.8578C13.2953 22.68 13.2019 22.6267 12.9797 22.7089C11.9975 23.0667 10.8842 22.4378 10.6553 21.4178C10.6242 21.2778 10.6219 21.1422 10.3931 21.1933C9.27305 21.4378 8.28416 20.7067 8.17305 19.5667C8.13972 19.2289 8.11972 18.8889 8.20416 18.5556C8.24416 18.3956 8.18194 18.3111 8.04861 18.2289C7.39972 17.82 6.75972 17.4 6.11305 16.9845C5.98861 16.9045 5.88638 16.8089 5.83305 16.6711C5.73972 16.4333 5.79527 16.1756 5.96638 16.0311C6.1575 15.8711 6.44861 15.8445 6.68416 15.9933C7.30861 16.3867 7.92861 16.7822 8.54194 17.1889C8.74861 17.3267 8.90416 17.3667 9.16416 17.2445C9.91972 16.8911 10.9642 16.9978 11.4753 17.9245C11.5353 18.0311 11.5931 18.0445 11.7086 18.0067C12.0308 17.8933 12.3619 17.8511 12.7064 17.9045C13.3286 18.0022 13.7397 18.3622 13.9908 18.9178C14.0508 19.0511 14.0931 19.0911 14.253 19.0444C15.7108 18.6267 16.6686 19.6867 16.6042 20.9667ZM13.0397 20.3845C13.0486 20.3845 13.0575 20.3845 13.0642 20.3845C13.0642 20.2489 13.0664 20.1133 13.0642 19.9778C13.0619 19.8422 13.0642 19.7067 13.0442 19.5733C12.9953 19.2422 12.7797 19.0489 12.4531 19.0289C12.1242 19.0089 11.9175 19.1556 11.8064 19.4711C11.7308 19.6845 11.7642 19.9045 11.7664 20.12C11.7708 20.4645 11.7175 20.8133 11.8019 21.1533C11.8864 21.4889 12.1775 21.6822 12.5331 21.6467C12.8464 21.6156 13.0219 21.4111 13.0375 21.0378C13.0464 20.82 13.0397 20.6022 13.0397 20.3845ZM15.5086 21.2822C15.5064 21.2822 15.5064 21.2822 15.5042 21.2822C15.5042 21.0867 15.5153 20.8911 15.5019 20.6956C15.4753 20.3489 15.2686 20.12 14.9731 20.0867C14.5842 20.0422 14.3419 20.1845 14.2553 20.5667C14.1553 21.0089 14.1686 21.4667 14.253 21.9089C14.3242 22.2733 14.6508 22.4645 15.0175 22.4133C15.3153 22.3711 15.4997 22.1245 15.5064 21.7556C15.5131 21.5978 15.5086 21.44 15.5086 21.2822ZM10.5842 19.12C10.5842 18.9933 10.5975 18.8622 10.5819 18.7378C10.5464 18.4422 10.3464 18.2467 10.0731 18.2222C9.70861 18.1889 9.4575 18.3178 9.37083 18.6089C9.26416 18.9622 9.27305 19.3245 9.37305 19.6756C9.45305 19.9511 9.7175 20.1133 10.0197 20.1C10.2931 20.0889 10.4686 19.9333 10.5486 19.6356C10.5931 19.4667 10.5886 19.2933 10.5842 19.12Z" fill="#F9FDFC"/>
<path d="M21.4775 22.1444C21.1108 22.1977 20.7686 22.0711 20.4353 21.9C19.2242 21.2777 18.0775 20.5422 16.9464 19.7822C16.9131 19.7599 16.8775 19.7355 16.8531 19.7111C16.6242 19.4866 16.4664 19.2199 16.6642 18.9244C16.8642 18.6288 17.1775 18.5977 17.4775 18.7688C17.8397 18.9755 18.162 19.2577 18.5153 19.4844C19.262 19.9644 20.022 20.4444 20.8042 20.8666C21.1775 21.0688 21.4708 21.0244 21.7064 20.6733C21.842 20.4733 22.0264 20.3666 22.2597 20.4111C22.4953 20.4555 22.6042 20.6155 22.6642 20.8355C22.7064 20.9911 22.7175 21.1311 22.6264 21.2888C22.3531 21.76 22.0486 22.0622 21.4775 22.1444Z" fill="#F9FDFC"/>
<defs>
<linearGradient id="paint0_linear_13447_102844" x1="-0.00104438" y1="0.000733269" x2="31.999" y2="32.0007" gradientUnits="userSpaceOnUse">
<stop stop-color="#24D59E"/>
<stop offset="0.2094" stop-color="#25D4A2"/>
<stop offset="0.4265" stop-color="#27D3AF"/>
<stop offset="0.6469" stop-color="#2CCFC3"/>
<stop offset="0.8684" stop-color="#32CBE0"/>
<stop offset="1" stop-color="#36C8F5"/>
</linearGradient>
</defs>
</svg>
